Coordinates
version=1
nRows=54
nColumns=12
inDegrees=yes

Units are S.I. units (second, meters, Newtons, ...)
Angles are in degrees

endheader
time	SC_y	SC_z	SC_x	AC_y	AC_z	AC_x	GH_y	GH_z	GH_yy	EL_x	PS_y
       0.0              -18.01          29.33           49.7          63.31         -19.57        -0.6545         -135.0          29.38         -170.5          106.0          75.56
    0.0393              -18.01          29.33           49.7           63.3         -19.56        -0.6552         -135.0          29.38         -170.4          106.0          75.55
   0.07861              -18.01          29.33           49.7           63.3         -19.56         -0.656         -134.9          29.38         -170.4          106.0          75.54
    0.1179              -18.01          29.32          49.69          63.29         -19.55        -0.6569         -134.9          29.38         -170.3          106.0          75.53
    0.1572              -18.02          29.32          49.69          63.29         -19.55        -0.6577         -134.8          29.38         -170.3          106.0          75.52
    0.1965              -18.02          29.32          49.69          63.28         -19.54        -0.6587         -134.8          29.38         -170.2          106.0          75.51
    0.2358              -18.02          29.31          49.69          63.28         -19.54        -0.6597         -134.8          29.38         -170.2          106.0          75.49
    0.2751              -18.03          29.31          49.68          63.27         -19.53        -0.6608         -134.7          29.38         -170.1          106.0          75.48
    0.3144              -18.03          29.31          49.68          63.27         -19.52        -0.6619         -134.7          29.38         -170.1          106.0          75.47
    0.3537              -18.04           29.3          49.68          63.26         -19.52        -0.6632         -134.6          29.38         -170.0          106.0          75.45
     0.393              -18.04           29.3          49.67          63.25         -19.51        -0.6645         -134.6          29.38         -170.0          106.0          75.43
    0.4323              -18.05          29.29          49.67          63.24          -19.5         -0.666         -134.5          29.38         -169.9          106.0          75.42
    0.4716              -18.05          29.29          49.67          63.24         -19.49        -0.6675         -134.4          29.38         -169.8          106.0           75.4
    0.5109              -18.06          29.28          49.66          63.23         -19.48        -0.6692         -134.4          29.38         -169.7          106.0          75.38
    0.5502              -18.06          29.28          49.66          63.22         -19.47         -0.671         -134.3          29.38         -169.6          106.0          75.35
    0.5895              -18.07          29.27          49.65           63.2         -19.46        -0.6729         -134.2          29.37         -169.5          106.0          75.33
    0.6288              -18.08          29.26          49.65          63.19         -19.45        -0.6751         -134.1          29.37         -169.4          106.0           75.3
    0.6681              -18.08          29.26          49.64          63.18         -19.44        -0.6774         -134.0          29.37         -169.3          106.0          75.27
    0.7074              -18.09          29.25          49.63          63.17         -19.42        -0.6799         -133.9          29.37         -169.2          106.0          75.24
    0.7468               -18.1          29.24          49.63          63.15         -19.41        -0.6827         -133.8          29.37         -169.0          106.0          75.21
    0.7861              -18.11          29.23          49.62          63.13         -19.39        -0.6858         -133.6          29.37         -168.9          106.0          75.17
    0.8254              -18.12          29.22          49.61          63.11         -19.37        -0.6891         -133.5          29.37         -168.7          106.0          75.13
    0.8647              -18.14           29.2           49.6          63.09         -19.35        -0.6928         -133.3          29.36         -168.5          105.9          75.08
     0.904              -18.15          29.19          49.59          63.07         -19.33        -0.6969         -133.2          29.36         -168.3          105.9          75.03
    0.9433              -18.17          29.18          49.58          63.04          -19.3        -0.7015         -133.0          29.36         -168.1          105.9          74.97
    0.9826              -18.18          29.16          49.57          63.02         -19.27        -0.7066         -132.7          29.36         -167.8          105.9          74.91
     1.022               -18.2          29.14          49.55          62.98         -19.24        -0.7123         -132.5          29.35         -167.5          105.9          74.84
     1.061              -18.22          29.12          49.53          62.95          -19.2        -0.7187         -132.2          29.35         -167.2          105.9          74.76
       1.1              -18.25           29.1          49.52          62.91         -19.16         -0.726         -131.9          29.35         -166.8          105.9          74.67
      1.14              -18.28          29.07          49.49          62.86         -19.12        -0.7342         -131.6          29.34         -166.4          105.9          74.57
     1.179              -18.31          29.04          49.47          62.81         -19.06        -0.7436         -131.2          29.34         -166.0          105.9          74.45
     1.218              -18.35           29.0          49.44          62.75          -19.0        -0.7544         -130.7          29.33         -165.4          105.9          74.32
     1.258              -18.39          28.96          49.41          62.68         -18.93        -0.7669         -130.2          29.33         -164.8          105.9          74.16
     1.297              -18.44          28.91          49.37           62.6         -18.85        -0.7814         -129.5          29.32         -164.1          105.9          73.98
     1.336              -18.49          28.86          49.33           62.5         -18.75        -0.7983         -128.8          29.31         -163.2          105.9          73.77
     1.376              -18.56          28.79          49.28          62.39         -18.64        -0.8183         -127.9           29.3         -162.2          105.9          73.52
     1.415              -18.64          28.71          49.22          62.25         -18.51         -0.842         -126.9          29.29         -161.0          105.9          73.23
     1.454              -18.74          28.62          49.14          62.09         -18.35        -0.8705         -125.7          29.28         -159.6          105.9          72.88
     1.494              -18.86          28.51          49.06           61.9         -18.15        -0.9049         -124.2          29.26         -157.8          105.9          72.45
     1.533               -19.0          28.37          48.95          61.67         -17.91         -0.947         -122.4          29.24         -155.7          105.9          71.93
     1.572              -19.17           28.2          48.81          61.37         -17.62        -0.9989         -120.2          29.21         -153.1          105.9          71.28
     1.611              -19.39          27.99          48.65          61.01         -17.25         -1.064         -117.4          29.18         -149.8          105.9          70.48
     1.651              -19.67          27.72          48.44          60.55         -16.79         -1.145         -113.9          29.14         -145.7          105.9          69.47
      1.69              -20.02          27.38          48.17          59.97         -16.21         -1.249         -109.4          29.09         -140.5          105.8          68.18
     1.729              -20.47          26.94          47.83          59.22         -15.46         -1.381         -103.7          29.02         -133.8          105.8          66.53
     1.769              -21.05          26.38          47.39          58.27          -14.5         -1.552          -96.4          28.94         -125.2          105.8          64.42
     1.808              -21.79          25.67          46.83          57.05         -13.27         -1.769         -87.05          28.83         -114.2          105.7          61.72
     1.847              -22.72          24.77          46.13          55.51         -11.72         -2.042         -75.29          28.69         -100.4          105.7          58.32
     1.887              -23.85          23.67          45.27          53.64         -9.842         -2.376         -60.96          28.52         -83.55          105.6          54.18
     1.926              -25.16           22.4          44.28          51.47          -7.66         -2.762         -44.35          28.33         -64.05          105.5          49.39
     1.965              -26.57          21.03          43.21          49.12         -5.297          -3.18         -26.36          28.12         -42.93          105.5          44.19
     2.004              -27.99          19.65          42.13          46.77         -2.935         -3.598         -8.374          27.91         -21.82          105.4           39.0
     2.044               -29.3          18.38          41.14           44.6        -0.7528         -3.984          8.238          27.72         -2.318          105.3           34.2
     2.083              -30.43          17.29          40.28          42.73           1.13         -4.317          22.57          27.56          14.51          105.2          30.07
